<svg width="20" height="20" viewBox="0 0 20 20" fill="none" xmlns="http://www.w3.org/2000/svg">
<g id="Group">
<path id="Vector" d="M3.66643 10.3333C3.66643 6.65833 6.65809 3.66667 10.3331 3.66667C14.0081 3.66667 16.9998 6.65833 16.9998 10.3333C16.9998 14.0083 14.0081 17 10.3331 17C6.65809 17 3.66643 14.0083 3.66643 10.3333ZM1.99976 10.3333C1.99976 14.9333 5.73309 18.6667 10.3331 18.6667C14.9331 18.6667 18.6664 14.9333 18.6664 10.3333C18.6664 5.73333 14.9331 2 10.3331 2C5.73309 2 1.99976 5.73333 1.99976 10.3333ZM10.3331 9.5L6.99976 9.5L6.99976 11.1667L10.3331 11.1667L10.3331 13.6667L13.6664 10.3333L10.3331 7L10.3331 9.5Z" fill="#FFF8EE"/>
</g>
</svg>
